<?xml version="1.0" encoding="UTF-8"?>
<!-- Created with Inkscape (http://www.inkscape.org/) -->
<svg width="552.85" height="596.32" version="1.1" viewBox="0 0 552.85 596.32" xml:space="preserve" xmlns="http://www.w3.org/2000/svg" xmlns:cc="http://creativecommons.org/ns#" xmlns:dc="http://purl.org/dc/elements/1.1/" xmlns:rdf="http://www.w3.org/1999/02/22-rdf-syntax-ns#"><metadata><rdf:RDF><cc:Work rdf:about=""><dc:format>image/svg+xml</dc:format><dc:type rdf:resource="http://purl.org/dc/dcmitype/StillImage"/><dc:title/></cc:Work></rdf:RDF></metadata><defs><clipPath id="clipPath18"><path d="m0 612h792v-612h-792z"/></clipPath><clipPath id="clipPath34"><path d="m0 612h792v-612h-792z"/></clipPath><clipPath id="clipPath62"><path d="m0 612h792v-612h-792z"/></clipPath><clipPath id="clipPath78"><path d="m0 612h792v-612h-792z"/></clipPath><clipPath id="clipPath94"><path d="m0 612h792v-612h-792z"/></clipPath></defs><g transform="matrix(1.3333 0 0 -1.3333 -272.17 714.35)"><g clip-path="url(#clipPath18)"><g transform="translate(618.77 296.98)"><path d="m0 0c0-114.5-92.82-207.32-207.32-207.32-114.5 0-207.32 92.819-207.32 207.32s92.82 207.32 207.32 207.32c114.5 0 207.32-92.819 207.32-207.32" fill="#8c43ff"/></g><g transform="translate(422.95 154.41)"><path d="m0 0h-21.56c-27.614 0-48.5 21.636-48.5 49.25l-1.5 52.013h121.56l-2.31-50.631c0-27.615-20.076-50.632-47.69-50.632" fill="#ffdbb4"/></g></g><g clip-path="url(#clipPath34)"><g transform="translate(561 151.13)"><path d="m0 0c-37.795-42.573-89.892-61.977-147.51-62.595-0.53-0.012-1.06-0.012-1.59-0.012-0.529 0-1.059 0-1.589 0.012-57.639 0.618-110.74 20.171-148.54 62.744 3.698 2.461 9.484 12.214 15.485 15.087 19.529 9.352 41.604 25.951 41.604 25.951s2.119 2.668 7.04 3.435c4.93 0.755 9.168 7.337 9.168 7.337 5.95 11.162 17.319 9.261 17.319 9.261 19.152-40.226 51.18-45.698 59.513-46.442 8.334 0.744 40.362 6.216 59.514 46.442 0 0 11.369 1.901 17.319-9.261 0 0 4.238-6.582 9.168-7.337 4.921-0.767 7.04-3.435 7.04-3.435s22.075-16.599 41.604-25.951c6.001-2.873 10.758-12.775 14.456-15.236" fill="#3e596c"/></g><g transform="translate(411.89 89.662)"><path d="M 0,0 H -0.44 C -0.81,0 -1.19,0 -1.56,0.01 -1.04,0 -0.52,0 0,0" fill="#3e596c"/></g><g transform="translate(413.45 89.672)"><path d="m0 0c-0.37-0.01-0.75-0.01-1.12-0.01h-0.44c0.52 0 1.04 0 1.56 0.01" fill="#3e596c"/></g><g transform="translate(497.95 194.57)"><path d="m0 0s-27.952-58.318-87.917-59.657" fill="none" stroke="#20313a" stroke-miterlimit="10" stroke-width="3"/></g><g transform="translate(328.53 195.18)"><path d="m0 0s25.215-60.266 82.112-60.201" fill="none" stroke="#20313a" stroke-miterlimit="10" stroke-width="3"/></g></g><g clip-path="url(#clipPath62)"><g transform="translate(472.95 292.21)"><path d="m0 0v-35.803c-15.56-40.25-54.56-41.384-54.56-41.384l-7.75 0.054c-23.5-1.17-48 19.33-59.25 38.361v39.624c0.68-1.306 1.38-2.625 2.12-3.945 16.95-30.079 26.38-61.813 58.88-58.376 32.5-3.437 41.93 28.297 58.88 58.362 0.58 1.031 1.14 2.076 1.68 3.107" fill="#c9ae93"/></g><g transform="translate(495.39 397.66)"><path d="m0 0c-4.92-47.86-5.62-54.97-5.68-55.75-0.17-1.54-2.95-26.33-3.19-28.88-0.16-1.72 0.03-11.44-4.2-23.6-1.99-5.7-4.95-11.94-9.37-18.14-0.54-0.75-1.1-1.51-1.68-2.26-14.478-18.681-23.105-36.909-45.879-42.607-8.481-2.122-17.367-1.904-25.882 0.077-25.423 5.917-31.263 23.518-45.999 42.54-0.74 0.96-1.44 1.92-2.12 2.87-7.97 11.43-11.02 22.93-12.23 30.9-0.82 5.42-0.8 9.21-0.89 10.23-0.25 2.5-2.95 26.62-3.19 28.79 0 0.13-0.46 4.98-5.69 55.83-6.35 61.74 24.75 71.25 24.75 71.25 27.25 21.5 56.75 17.5 56.75 17.5s32.5 4 59.75-17.5c0 0 31.1-9.51 24.75-71.25" fill="#ffdbb4"/></g></g><g clip-path="url(#clipPath78)"><g transform="translate(324.14 390.16)"><path d="m0 0s-16 3-12-28c0 0 2.917-18 4.417-20.667 1.5-2.666 3.5-7.333 3.5-7.333s2.666-10.333 11-10c0 0 6.333-1.667 8.666 5.167 0 0-1.833 55.833-15.583 60.833" fill="#ffdbb4"/></g><g transform="translate(497.08 390.16)"><path d="m0 0s16 3 12-28c0 0-2.917-18-4.417-20.667-1.5-2.666-3.5-7.333-3.5-7.333s-2.666-10.333-11-10c0 0-6.333-1.667-8.666 5.167 0 0 1.833 55.833 15.583 60.833" fill="#ffdbb4"/></g></g><g clip-path="url(#clipPath94)"><g transform="translate(331.64 365.66)"><path d="m0 0s-9.029 18.557-13 33.75c-4.667 17.856-5.75 30.75-7.75 32.25s-6.25 5.25-4.75 10.75 0.25 13.5 3 18.75 7.25 8.25 13.75 8c0 0-3.25 22.75 8.75 31 0 0 4 9.5 15.5 12.75 0 0 16.75 14.75 42.75 15.75 0 0 27 13.75 40.5 2.25l5.75-6.25s0.75 8.673-9.75 10.837c0 0 8.75 2.663 12.75-8.837s18-13.5 20.5-24.75c0 0 1.25-4.75 1.25-8.25 0 0 18 9.75 31.75-15.25s11.25-53.25 11.25-53.25-4.5-40.5-12-52.75c0 0-7 17.5-6.5 44.25 0 0-4 37-18.75 47.25 0 0-13.25 7-33-4.25 0 0-14.75-7.75-56.5-1.25 0 0-22.5 5.75-31.25-11.25 0 0-8-22.25-9.5-37.25s-0.5-33-4.75-44.25" fill="#4a312c"/></g><g transform="translate(341.48 384.75)"><path d="m0 0s3.75 13.75 21.25 15.875c0 0 30.037 0.162 35.912-9.088 0 0 2.125-8-17.662-1.037-6.824 2.401-25.625 0.875-35-4.5 0 0-5.124-2.914-4.5-1.25" fill="#665848"/></g><g transform="translate(486.9 388.5)"><path d="m0 0s-3.75 13.75-21.25 15.875c0 0-30.037 0.162-35.912-9.088 0 0-2.125-8 17.662-1.037 6.824 2.401 25.625 0.875 35-4.5 0 0 5.123-2.914 4.5-1.25" fill="#665848"/></g><g transform="translate(358.17 361.04)"><path d="m0 0s-1.375 13 17.5 14c0 0 13.25-0.875 15.375-14 0 0-1.125-1.25-4.875 2.125-3.298 2.968-11.334 4.97-19.261 3.113-1.764-0.413-3.374-1.352-4.617-2.67-1.035-1.097-2.541-2.362-4.122-2.568" fill="#665848"/></g><g transform="translate(440.08 363.04)"><path d="m0 0s-1.375 13 17.5 14c0 0 13.25-0.875 15.375-14 0 0-1.125-1.25-4.875 2.125-3.298 2.968-11.334 4.97-19.261 3.113-1.764-0.413-3.374-1.352-4.617-2.67-1.035-1.097-2.541-2.362-4.122-2.568" fill="#665848"/></g><g transform="translate(430.38 317.21)"><path d="m0 0c0.551-6e-3 0.877-0.62 0.565-1.075-1.733-2.53-6.836-8.69-15.3-8.47-8.466-0.22-13.564 5.935-15.298 8.467-0.313 0.456 0.014 1.072 0.567 1.078l14.731 0.163z" fill="#b59f8a"/></g><g transform="translate(443.82 283.81)"><path d="m0 0c-0.61-3.53-2.84-11.31-8.98-17.08-5.11 5.37-12.3 5.53-14.71 5.42-0.51-0.03-1-0.15-1.46-0.36-2.36-1.09-5.07-1.17-7.49-0.22l-0.04 0.01c-0.67 0.27-1.37 0.44-2.09 0.48-5.26 0.32-10.03-3.17-12.6-5.5-6.34 6.4-7.85 15.26-7.65 17.24 0.14 1.44 0.04 2.81 1.48 2.82l2.35 0.23c0.23-2.91 1.73-8.05 9.51-7.94 10.83 0.17 26.83 0 26.83 0s9.65-1.65 10.65 7.95l2.72-0.24c1.45-0.01 1.73-1.39 1.48-2.81" fill="#4c4136"/></g><g transform="translate(439.62 286.86)"><path d="m0 0c-1-9.6-10.65-7.95-10.65-7.95s-16 0.17-26.83 0c-7.78-0.11-9.28 5.03-9.51 7.94l16.4 1.63c3.85 0.38 7.72 0.4 11.56 0.06z" fill="#ffffff"/></g><g transform="translate(434.84 266.73)"><path d="m0 0c-4.39-4.13-10.79-7.22-20.03-6.98-8.52-0.22-14.39 2.81-18.36 6.81 2.57 2.33 7.34 5.82 12.6 5.5 0.72-0.04 1.42-0.21 2.09-0.48l0.04-0.01c2.42-0.95 5.13-0.87 7.49 0.22 0.46 0.21 0.95 0.33 1.46 0.36 2.41 0.11 9.6-0.05 14.71-5.42" fill="#e877a3"/></g></g></g></svg>
