<?xml version="1.0" encoding="UTF-8" standalone="no"?>
<svg
   xmlns:dc="http://purl.org/dc/elements/1.1/"
   xmlns:cc="http://creativecommons.org/ns#"
   xmlns:rdf="http://www.w3.org/1999/02/22-rdf-syntax-ns#"
   xmlns:svg="http://www.w3.org/2000/svg"
   xmlns="http://www.w3.org/2000/svg"
   id="svg8"
   version="1.1"
   viewBox="0 0 128.00502 127.99827"
   height="127.99827mm"
   width="128.00502mm">
  <defs
     id="defs2" />
  <metadata
     id="metadata5">
    <rdf:RDF>
      <cc:Work
         rdf:about="">
        <dc:format>image/svg+xml</dc:format>
        <dc:type
           rdf:resource="http://purl.org/dc/dcmitype/StillImage" />
        <dc:title></dc:title>
      </cc:Work>
    </rdf:RDF>
  </metadata>
  <g
     transform="translate(-41.096235,-158.13743)"
     id="layer1">
    <g
       transform="translate(7.5595186,3.7797616)"
       id="g227">
      <path
         id="path241"
         d="m 57.480558,282.33406 c -0.600795,-0.023 -1.167369,-0.0696 -1.788655,-0.14724 -6.987241,-0.87301 -13.316346,-4.64083 -17.430772,-10.37683 -2.534392,-3.53324 -4.103511,-7.61735 -4.592105,-11.95234 -0.05322,-0.47215 -0.08015,-0.86454 -0.107532,-1.5664 -0.03087,-0.79122 -0.03063,-79.05296 2.4e-4,-79.87564 0.03945,-1.05134 0.127294,-1.90143 0.30623,-2.96346 1.015486,-6.02713 4.169751,-11.46959 8.901167,-15.35834 3.704731,-3.04492 8.17504,-4.96939 12.922772,-5.56327 0.694629,-0.0869 1.190478,-0.12455 2.000331,-0.15193 0.971563,-0.0328 79.616416,-0.0154 80.267236,0.0178 0.99276,0.0507 2.33446,0.23489 3.5008,0.48068 6.48753,1.36716 12.18015,5.22929 15.8656,10.76392 2.08748,3.13488 3.44684,6.69078 3.98126,10.41442 0.12842,0.89478 0.17384,1.40376 0.21156,2.37076 0.0303,0.77675 0.0307,79.08292 4.2e-4,79.85447 -0.038,0.96752 -0.0852,1.4982 -0.21197,2.38135 -1.0287,7.16761 -5.09807,13.56838 -11.16247,17.55763 -2.94649,1.93824 -6.22231,3.2256 -9.698,3.81121 -1.06203,0.17893 -1.91212,0.26678 -2.96346,0.30623 -0.7186,0.027 -79.296143,0.024 -80.002643,-0.003 z m 41.954027,-28.36069 c 4.666215,-0.20984 8.462695,-1.01287 11.926195,-2.52263 1.68374,-0.73396 3.68817,-1.93544 5.25123,-3.14764 1.93046,-1.49715 3.5536,-3.25261 4.78804,-5.17838 2.20863,-3.44555 3.3894,-6.87118 3.68089,-10.67901 0.0534,-0.69782 0.0263,-0.93949 -0.145,-1.29122 -0.0722,-0.1483 -0.12315,-0.21552 -0.28977,-0.38241 -0.47639,-0.47714 -0.80661,-0.66687 -1.30376,-0.74907 -0.18982,-0.0314 -0.48761,-0.0341 -2.99431,-0.0276 -2.74129,0.007 -2.78642,0.008 -2.97404,0.0517 -0.7367,0.17212 -1.18373,0.53816 -1.51098,1.2372 -0.14605,0.31197 -0.2317,0.59003 -0.42325,1.37398 -0.48912,2.00185 -1.01593,3.48576 -1.77317,4.99463 -0.34959,0.69658 -0.60402,1.14072 -0.97255,1.69768 -1.00633,1.52086 -2.13145,2.65712 -3.5648,3.60006 -2.38242,1.56729 -5.42842,2.50802 -9.0597,2.79799 -0.890163,0.0711 -1.288312,0.0845 -2.518934,0.085 -1.288338,4.9e-4 -1.652477,-0.0131 -2.571854,-0.0962 -7.873522,-0.71122 -12.749067,-4.8942 -14.61659,-12.5403 -0.483041,-1.97768 -0.757374,-4.10906 -0.84596,-6.57251 -0.08137,-2.26263 -0.120069,-7.29173 -0.08718,-11.32767 0.03341,-4.09953 0.06892,-5.44202 0.183563,-6.9399 0.224268,-2.93016 0.77932,-5.53475 1.648742,-7.73673 1.763282,-4.46587 4.813954,-7.40268 9.176991,-8.83449 1.044124,-0.34265 2.069392,-0.58021 3.253391,-0.75382 2.621085,-0.38436 5.896401,-0.34369 8.642761,0.10729 2.81176,0.46173 5.14679,1.36144 7.11228,2.74046 1.29935,0.91163 2.42098,2.10307 3.34656,3.55485 1.17177,1.8379 2.03161,4.01451 2.70511,6.84769 0.13586,0.57156 0.22901,0.86381 0.37214,1.16767 0.35604,0.75584 0.90435,1.15176 1.73627,1.25371 0.12973,0.0159 1.04826,0.0233 2.87878,0.0233 2.23279,0 2.72235,-0.005 2.88937,-0.0306 0.8222,-0.12467 1.43699,-0.63322 1.66453,-1.3769 0.0542,-0.17717 0.0583,-0.21645 0.058,-0.56094 -8.3e-4,-0.95037 -0.24579,-2.68183 -0.56693,-4.00709 -0.60166,-2.48287 -1.60714,-4.78158 -3.1313,-7.15878 -1.06864,-1.66672 -2.44264,-3.21016 -4.05597,-4.55616 -1.76691,-1.47412 -4.07744,-2.8671 -6.46772,-3.89926 -2.08848,-0.90185 -4.52656,-1.57997 -7.11229,-1.9782 -3.36998,-0.51902 -7.341218,-0.59652 -10.858936,-0.21193 -5.554997,0.60733 -10.11813,2.37161 -13.676456,5.28785 -1.948426,1.59683 -3.707417,3.66099 -5.070682,5.95039 -2.260636,3.7964 -3.597039,8.38338 -3.996276,13.71655 -0.150822,2.01475 -0.180385,3.73153 -0.180609,10.48851 -2.33e-4,6.72771 0.02867,8.39532 0.180609,10.42501 0.45583,6.08915 2.145733,11.26488 5.010141,15.34475 1.349954,1.92278 2.835718,3.48438 4.556491,4.78906 3.973144,3.01242 9.050093,4.65959 15.421907,5.00352 1.148454,0.062 3.150203,0.0716 4.285055,0.0206 z"
         style="fill:#e5d6fe;stroke-width:0.02116752" />
      <path
         id="path239"
         d="m 57.607563,282.33457 c -2.207048,-0.0895 -4.568365,-0.53074 -6.774721,-1.2659 -6.623049,-2.20681 -12.073516,-7.09642 -14.995562,-13.45249 -1.36547,-2.97019 -2.149082,-6.21472 -2.275142,-9.42019 -0.03144,-0.7995 -0.03176,-78.87214 -3.27e-4,-79.66396 0.02703,-0.6809 0.06777,-1.21652 0.138464,-1.82041 0.737014,-6.29595 3.817924,-12.08694 8.638457,-16.23717 3.680523,-3.16873 8.182382,-5.2077 12.983349,-5.88037 0.916418,-0.1284 1.51889,-0.18085 2.465406,-0.21465 0.947145,-0.0338 79.471983,-0.0176 80.044983,0.0165 2.13432,0.12714 4.46658,0.58819 6.54076,1.29301 7.48483,2.5434 13.38091,8.47172 15.8768,15.96363 0.75444,2.26462 1.17664,4.55442 1.26846,6.87945 0.031,0.78595 0.031,78.86743 0,79.65338 -0.0361,0.91492 -0.10349,1.64358 -0.23482,2.5401 -1.2861,8.77947 -7.08681,16.24905 -15.29049,19.68956 -2.55366,1.07097 -5.43505,1.7441 -8.16071,1.90643 -0.47322,0.0282 -79.534678,0.0411 -80.224907,0.0131 z m 42.155119,-28.35969 c 2.289298,-0.13317 3.927278,-0.32892 5.683478,-0.67921 2.70176,-0.5389 5.28962,-1.42551 7.33017,-2.51135 1.95341,-1.03947 3.74747,-2.28328 5.201,-3.60582 0.66901,-0.60872 1.52566,-1.50858 2.08582,-2.19104 0.99645,-1.21399 1.9894,-2.77444 2.78144,-4.37109 1.32357,-2.66814 2.07239,-5.44439 2.26717,-8.40553 0.0337,-0.51215 -0.006,-0.75724 -0.17633,-1.08587 -0.099,-0.19109 -0.23477,-0.3458 -0.51019,-0.58124 -0.32342,-0.27647 -0.51769,-0.38887 -0.82703,-0.47852 -0.33072,-0.0958 -0.46535,-0.0995 -3.31362,-0.0908 -2.61841,0.008 -2.68214,0.009 -2.87878,0.0523 -0.64365,0.14105 -1.03972,0.40329 -1.36665,0.90484 -0.23808,0.36525 -0.37366,0.73514 -0.57071,1.55706 -1.1723,4.88967 -3.13661,8.21748 -6.05338,10.25525 -2.42703,1.69563 -5.68539,2.72237 -9.535967,3.00489 -1.403578,0.10299 -3.209119,0.1071 -4.487514,0.0102 -3.763442,-0.28516 -6.816262,-1.31875 -9.245747,-3.13032 -1.499584,-1.11818 -2.735699,-2.51818 -3.739099,-4.23484 -0.216516,-0.37042 -0.676531,-1.27297 -0.846923,-1.66165 -0.953495,-2.17503 -1.576214,-4.71234 -1.862418,-7.58856 -0.207914,-2.08942 -0.2543,-4.06956 -0.254385,-10.85894 0,-7.00205 0.05113,-8.91999 0.297309,-11.13411 0.69015,-6.20712 2.92167,-10.66654 6.678698,-13.34657 2.298938,-1.63992 5.222368,-2.62472 8.665636,-2.91916 0.875981,-0.0749 1.201438,-0.0862 2.4766,-0.0858 1.517279,4.6e-4 2.199199,0.0343 3.42914,0.17008 3.83763,0.42375 6.9274,1.60631 9.26131,3.54463 0.35289,0.29308 1.13569,1.0799 1.45288,1.46036 1.72679,2.07116 2.92263,4.69751 3.77331,8.28708 0.186,0.78483 0.32488,1.16213 0.56126,1.52478 0.33381,0.5121 0.74541,0.77862 1.40899,0.91232 0.16282,0.0328 0.43447,0.037 2.85761,0.0445 1.79798,0.006 2.75497,7.9e-4 2.91292,-0.0144 0.57727,-0.0554 1.01405,-0.25426 1.3735,-0.62524 0.20356,-0.21008 0.34662,-0.44172 0.43165,-0.6989 0.096,-0.29051 0.11508,-0.48486 0.0879,-0.8976 -0.17271,-2.62565 -0.78439,-5.11225 -1.85416,-7.53766 -0.18805,-0.42634 -0.69714,-1.44491 -0.93103,-1.86274 -0.49687,-0.88766 -1.12725,-1.87959 -1.60937,-2.5324 -1.77049,-2.39734 -4.13165,-4.42863 -7.05712,-6.07121 -0.73991,-0.41544 -1.84175,-0.96918 -2.54102,-1.27702 -3.13595,-1.38055 -6.78891,-2.2058 -10.83777,-2.44837 -1.659652,-0.0994 -3.841934,-0.10411 -5.387138,-0.0115 -7.36253,0.44107 -13.055014,2.702 -17.187284,6.82642 -4.64709,4.63825 -7.21242,11.16369 -7.630841,19.4106 -0.154842,3.05188 -0.168347,14.46042 -0.02156,18.21465 0.285148,7.29296 2.243848,13.32435 5.818998,17.9183 1.095106,1.40718 2.153071,2.48438 3.470822,3.53393 3.820587,3.04299 8.812462,4.79758 14.904256,5.23867 0.498267,0.0361 0.900996,0.0582 1.71457,0.0942 0.365863,0.0162 3.42983,-0.006 3.79957,-0.0275 z"
         style="fill:#dbc6fe;stroke-width:0.02116752" />
      <path
         id="path237"
         d="m 57.713401,282.33486 c -3.860919,-0.16345 -7.759094,-1.26492 -11.134116,-3.14606 -1.677786,-0.93515 -3.144498,-1.97812 -4.603936,-3.27385 -0.50526,-0.44858 -1.563408,-1.5087 -2.019469,-2.02324 -2.206764,-2.48971 -3.856822,-5.2743 -4.960817,-8.37175 -0.824834,-2.31422 -1.309355,-4.77396 -1.423912,-7.22871 -0.0462,-0.99004 -0.04577,-78.87452 4.4e-4,-79.86506 0.19404,-4.15903 1.417281,-8.18612 3.583888,-11.79867 2.111303,-3.52034 5.13421,-6.54281 8.656541,-8.65529 3.661696,-2.19606 7.703415,-3.40824 11.975647,-3.59169 0.70914,-0.0305 78.795713,-0.0305 79.504853,0 2.40987,0.10348 4.69158,0.52153 6.94279,1.27205 6.32756,2.10951 11.58114,6.65017 14.59355,12.61319 1.63319,3.23288 2.53791,6.71581 2.6895,10.35391 0.0303,0.72682 0.0303,78.75124 0,79.47806 -0.21398,5.13527 -1.96045,10.03742 -5.03487,14.13231 -0.75249,1.00226 -1.42477,1.77383 -2.36154,2.71034 -1.27864,1.27828 -2.41296,2.2086 -3.8959,3.19524 -1.43151,0.95243 -2.96435,1.76159 -4.53883,2.39598 -2.67787,1.07897 -5.49572,1.68401 -8.4081,1.80537 -0.63747,0.0266 -78.937486,0.0245 -79.565719,-0.002 z m 41.774103,-28.33974 c 2.853096,-0.13583 5.138206,-0.45033 7.452526,-1.02569 2.086,-0.5186 4.2081,-1.30826 5.81762,-2.1648 3.81544,-2.0305 6.70359,-4.59548 8.69587,-7.72287 0.54204,-0.85087 0.93153,-1.53059 1.3278,-2.31722 1.33232,-2.64474 2.08532,-5.33047 2.32048,-8.2765 0.0562,-0.7038 0.0277,-0.97923 -0.13655,-1.32297 -0.12811,-0.26802 -0.3091,-0.46115 -0.7599,-0.81087 -0.1569,-0.12172 -0.46093,-0.26684 -0.68213,-0.3256 l -0.17992,-0.0478 -2.77295,-0.007 c -1.9731,-0.005 -2.82943,-2.1e-4 -2.96877,0.0169 -0.59481,0.0727 -1.11872,0.33914 -1.41933,0.72181 -0.16268,0.20708 -0.31017,0.46981 -0.42464,0.75644 -0.1145,0.28671 -0.17505,0.50097 -0.38179,1.35097 -0.63681,2.61819 -1.59511,4.89557 -2.81308,6.68528 -0.81348,1.19533 -1.76874,2.20679 -2.82964,2.99608 -2.4467,1.82032 -5.75349,2.91959 -9.70582,3.22648 -1.460222,0.11338 -3.186944,0.12539 -4.498103,0.0313 -3.568947,-0.25617 -6.479105,-1.16256 -8.840371,-2.7534 -0.779592,-0.52523 -1.305662,-0.96293 -2.029743,-1.6888 -1.147509,-1.15033 -2.000888,-2.35771 -2.775562,-3.92694 -1.424087,-2.88471 -2.192199,-6.42673 -2.345975,-10.81805 -0.07829,-2.23586 -0.115971,-7.15641 -0.08564,-11.1856 0.03446,-4.57882 0.07908,-5.98721 0.244481,-7.717 0.540551,-5.65318 2.344792,-9.94661 5.35207,-12.73595 2.007297,-1.86182 4.506851,-3.08176 7.559627,-3.68956 1.569796,-0.31254 3.032239,-0.44342 4.942616,-0.44234 1.041203,5.9e-4 1.588902,0.0193 2.434265,0.083 4.417625,0.33303 7.879975,1.58739 10.424855,3.77678 0.49741,0.42793 1.08147,1.04767 1.56658,1.6623 1.51298,1.91692 2.67462,4.5203 3.42853,7.68381 0.23069,0.96801 0.35258,1.33059 0.57035,1.69669 0.35452,0.59599 0.88816,0.93271 1.6205,1.02251 0.24057,0.0295 5.54183,0.0294 5.74754,0 0.49218,-0.0706 0.86648,-0.24572 1.19092,-0.55719 0.39783,-0.38193 0.59774,-0.83953 0.59774,-1.36824 0,-0.22561 -0.0504,-0.87227 -0.10726,-1.37578 -0.40276,-3.56753 -1.65623,-6.91728 -3.78615,-10.11807 -1.87536,-2.81825 -4.4706,-5.11458 -7.90536,-6.99486 -0.45035,-0.24653 -1.5459,-0.79449 -1.99187,-0.99627 -3.18428,-1.44074 -6.88993,-2.29428 -11.07062,-2.54994 -1.632532,-0.0998 -3.643972,-0.10776 -5.19662,-0.0205 -5.7085,0.32093 -10.324433,1.69244 -14.139904,4.20134 -1.600995,1.05274 -3.102331,2.384 -4.42241,3.92141 -3.951263,4.60177 -6.109018,10.74353 -6.456638,18.37793 -0.07263,1.59503 -0.106263,4.49724 -0.106352,9.17612 0,4.64454 0.03271,7.43662 0.106301,9.04912 0.315778,6.91917 2.108218,12.60837 5.391931,17.11394 0.649547,0.89124 1.470923,1.85976 2.163162,2.55068 4.064308,4.05658 9.728574,6.33097 16.945306,6.80411 0.441419,0.0289 1.231467,0.0655 1.809823,0.0838 0.418291,0.0132 2.677151,-0.008 3.122209,-0.0288 z"
         style="fill:#cbabfe;stroke-width:0.02116752" />
      <path
         id="path235"
         d="m 57.842127,282.33616 c -3.722544,-0.16156 -7.313463,-1.10948 -10.574898,-2.79155 -3.500596,-1.80541 -6.547933,-4.41666 -8.869574,-7.60031 -1.902971,-2.60953 -3.298779,-5.58885 -4.085795,-8.72102 -0.393521,-1.56614 -0.619824,-3.05121 -0.73383,-4.81561 -0.04046,-0.62622 -0.04046,-79.47168 0,-80.0979 0.0773,-1.19627 0.203364,-2.23704 0.397422,-3.28097 1.32822,-7.1451 5.691243,-13.39052 11.958224,-17.11749 2.984549,-1.77492 6.321888,-2.9183 9.779394,-3.35046 0.500049,-0.0625 1.189365,-0.12615 1.778072,-0.16419 0.343587,-0.0222 7.895286,-0.0274 40.080701,-0.0274 37.824367,0 39.681807,0.002 40.186537,0.0377 1.44538,0.10301 2.69249,0.27902 3.94774,0.55719 3.94472,0.87416 7.62176,2.6811 10.72135,5.26859 5.06336,4.22682 8.25718,10.19685 8.963,16.75401 0.0574,0.53286 0.10365,1.16291 0.12831,1.74632 0.0282,0.66667 0.0282,78.58453 0,79.2512 -0.1572,3.718 -1.06188,7.22501 -2.70019,10.46734 -2.72084,5.38473 -7.30077,9.64112 -12.86838,11.95932 -2.77601,1.15586 -5.66946,1.79115 -8.77393,1.92642 -0.56717,0.0247 -78.764298,0.0235 -79.334153,-0.001 z m 41.899387,-28.34024 c 2.190246,-0.1278 3.571516,-0.28435 5.270716,-0.59734 2.84957,-0.52489 5.63183,-1.45411 7.76687,-2.59397 3.31051,-1.76743 5.90157,-3.91481 7.8406,-6.49802 0.93924,-1.25128 2.0198,-3.10553 2.66854,-4.57926 1.04585,-2.37583 1.64798,-4.79806 1.83352,-7.37587 0.0455,-0.63154 0.0158,-0.87062 -0.14855,-1.19695 -0.13813,-0.27429 -0.27824,-0.42467 -0.73163,-0.7853 -0.27438,-0.21823 -0.64416,-0.35917 -1.05183,-0.40089 -0.15735,-0.0161 -1.04955,-0.0207 -2.89457,-0.0149 -2.41262,0.008 -2.68428,0.0118 -2.84703,0.0446 -0.9566,0.19273 -1.46287,0.69161 -1.81802,1.79149 -0.0357,0.1106 -0.10841,0.38684 -0.16155,0.61386 -0.92363,3.94569 -2.40115,6.91241 -4.47927,8.99399 -1.81685,1.81986 -4.397,3.12861 -7.5329,3.82097 -2.73002,0.60274 -6.259202,0.76217 -9.165532,0.41404 -7.082784,-0.84839 -11.616556,-4.63331 -13.602427,-11.35567 -0.639901,-2.16613 -1.014276,-4.62432 -1.129927,-7.41922 -0.07875,-1.90324 -0.114296,-5.48993 -0.09911,-10.00165 0.01987,-5.90463 0.07523,-7.68933 0.30106,-9.70531 0.523803,-4.67605 1.887046,-8.28611 4.160542,-11.0177 0.307957,-0.37001 1.126831,-1.20346 1.479506,-1.50585 2.444925,-2.09631 5.469888,-3.29174 9.334876,-3.68903 0.964488,-0.0992 1.403547,-0.11755 2.804697,-0.11756 1.357795,-2e-5 1.702578,0.0122 2.698855,0.096 2.18459,0.18372 4.09364,0.58719 5.81909,1.22986 1.5791,0.58815 3.00551,1.40282 4.20373,2.40091 0.36964,0.3079 1.08383,1.02571 1.40915,1.41629 0.78991,0.9484 1.39257,1.88351 1.9781,3.06929 0.76184,1.54286 1.34114,3.22408 1.81977,5.2813 0.0528,0.22702 0.13018,0.51686 0.17192,0.64408 0.35575,1.08444 0.88641,1.59509 1.83094,1.76192 0.20593,0.0364 0.39764,0.0388 3.01403,0.0388 3.09564,0 2.94302,0.006 3.33899,-0.1382 0.72354,-0.26406 1.21864,-0.86974 1.30735,-1.59938 0.0182,-0.14982 0.016,-0.29028 -0.0103,-0.65536 -0.1856,-2.57869 -0.78731,-4.99923 -1.83352,-7.37587 -0.5092,-1.15675 -1.32061,-2.61667 -2.09409,-3.76782 -1.6087,-2.39415 -3.80687,-4.46543 -6.51895,-6.14264 -1.32626,-0.82019 -2.93543,-1.63923 -4.29701,-2.18711 -2.87522,-1.15694 -6.15317,-1.86664 -9.76881,-2.11502 -1.118192,-0.0768 -1.454421,-0.0861 -3.122204,-0.086 -1.669806,0 -1.991413,0.009 -3.06929,0.0859 -3.962372,0.28246 -7.327771,1.07498 -10.382669,2.44501 -0.43664,0.19582 -1.426279,0.70087 -1.862742,0.95063 -2.64988,1.51635 -4.865444,3.49728 -6.724168,6.01206 -3.331334,4.50716 -5.143365,10.30881 -5.414622,17.3362 -0.137619,3.56527 -0.137651,14.2207 0,17.68546 0.284224,7.1569 2.148897,13.04762 5.574773,17.61138 0.711436,0.94773 1.376725,1.71337 2.142848,2.46607 3.092638,3.03841 7.145975,5.07228 12.062697,6.05277 1.856796,0.37028 3.721275,0.58391 5.916322,0.67789 0.561926,0.0241 3.513197,0.0101 4.011245,-0.0189 z"
         style="fill:#b78bfe;stroke-width:0.02116752" />
      <path
         id="path233"
         d="m 58.168503,282.34478 c -0.520033,-0.0129 -1.785896,-0.11609 -2.455147,-0.20022 -6.277378,-0.78911 -11.96558,-3.85467 -16.096697,-8.67505 -2.345589,-2.73694 -4.106725,-6.02041 -5.092669,-9.49478 -0.556929,-1.96257 -0.87294,-3.97353 -0.96298,-6.128 -0.0253,-0.60541 -0.0253,-78.37061 0,-78.97602 0.197746,-4.73165 1.535422,-9.01668 4.026598,-12.89858 2.531701,-3.94504 6.250329,-7.20173 10.494571,-9.1909 3.122379,-1.46338 6.377962,-2.24752 9.969902,-2.40136 0.611219,-0.0262 78.364799,-0.0262 78.976019,0 3.78868,0.16226 7.16227,1.01176 10.42501,2.62509 4.95798,2.45159 8.98915,6.48277 11.44074,11.44075 1.26837,2.5651 2.07723,5.25415 2.43222,8.08599 0.0575,0.45833 0.0841,0.74559 0.17561,1.89449 0.0413,0.51871 0.0413,79.34635 0,79.86506 -0.0915,1.14844 -0.11814,1.43616 -0.1755,1.89449 -0.54067,4.32068 -2.18005,8.41483 -4.76767,11.90673 -1.30291,1.75824 -2.81576,3.33025 -4.51205,4.68852 -3.95008,3.16293 -8.7378,5.07099 -13.72714,5.4707 -0.29687,0.0238 -0.65884,0.055 -0.80436,0.0693 -0.20859,0.0206 -8.6118,0.0264 -39.69969,0.0275 -21.689301,7.8e-4 -39.530346,-9.1e-4 -39.646767,-0.004 z M 99.508671,254.0165 c 3.191949,-0.15276 5.846709,-0.55667 8.371759,-1.27371 2.6946,-0.76519 4.96063,-1.80513 7.26046,-3.332 1.38024,-0.91636 2.47619,-1.8073 3.57838,-2.909 1.19592,-1.19539 2.06951,-2.29958 2.97323,-3.75809 1.4894,-2.40372 2.4696,-4.79304 3.01329,-7.34513 0.25103,-1.17831 0.4302,-2.5881 0.43448,-3.41855 l 0.002,-0.41277 -0.0697,-0.19994 c -0.083,-0.23798 -0.18594,-0.41507 -0.33139,-0.56994 -0.12857,-0.13688 -0.44871,-0.41315 -0.58997,-0.50911 -0.14536,-0.0987 -0.41989,-0.22305 -0.61752,-0.27959 l -0.16934,-0.0484 -2.8047,-0.007 c -3.06544,-0.008 -3.04762,-0.008 -3.43671,0.11459 -0.58781,0.18538 -0.98248,0.54264 -1.28468,1.16292 -0.14526,0.29814 -0.2512,0.6295 -0.40196,1.25719 -0.76332,3.17813 -1.82492,5.6165 -3.29465,7.56739 -0.50998,0.67693 -1.19113,1.41134 -1.77416,1.91286 -1.07123,0.92148 -2.46782,1.74517 -3.98454,2.35004 -2.04438,0.81529 -4.35724,1.28023 -7.191911,1.44572 -0.613746,0.0358 -2.6922,0.0357 -3.270382,-2.7e-4 -2.199166,-0.13668 -3.952002,-0.4562 -5.648079,-1.02957 -4.554537,-1.53969 -7.663365,-4.76075 -9.316781,-9.65314 -0.779405,-2.30623 -1.241352,-4.9873 -1.374974,-7.98016 -0.143264,-3.20877 -0.156365,-13.24501 -0.02215,-16.96577 0.160298,-4.44376 0.935463,-8.01126 2.370989,-10.91185 2.307495,-4.66248 6.272087,-7.37777 11.927157,-8.16874 2.543714,-0.35578 5.786409,-0.3109 8.392931,0.11617 3.27114,0.53596 5.94303,1.66281 7.98133,3.36607 0.69821,0.58344 1.48762,1.44075 2.05691,2.2338 1.41027,1.96464 2.41918,4.35926 3.15899,7.49779 0.22776,0.96625 0.44493,1.46004 0.81439,1.85168 0.31724,0.3363 0.72823,0.53814 1.25504,0.61636 0.32419,0.0481 5.5669,0.0497 5.88501,0.002 0.7445,-0.11222 1.37314,-0.59354 1.62516,-1.2443 0.13738,-0.35474 0.15234,-0.60678 0.0839,-1.41262 -0.32901,-3.87141 -1.62001,-7.46568 -3.89795,-10.85226 -1.28411,-1.90906 -2.96658,-3.64158 -4.93878,-5.0857 -1.43794,-1.05291 -3.24162,-2.09194 -5.00601,-2.88375 -3.11368,-1.39733 -6.74031,-2.2374 -10.80661,-2.50322 -1.059284,-0.0692 -1.599824,-0.0846 -2.974041,-0.0845 -1.371378,0 -1.863889,0.0143 -2.921118,0.0842 -6.091832,0.4029 -11.064672,2.10059 -14.933686,5.09824 -2.09808,1.62556 -3.983494,3.77203 -5.451536,6.20634 -2.567125,4.25682 -3.954832,9.49209 -4.168289,15.72533 -0.06334,1.84965 -0.07465,3.15652 -0.07467,8.62577 -1.2e-5,5.47923 0.01074,6.70718 0.07467,8.53051 0.286263,8.16359 2.567561,14.6182 6.878625,19.46208 1.711943,1.92353 3.965009,3.60426 6.44551,4.80818 3.573702,1.73451 7.710636,2.65366 12.711097,2.82418 0.637777,0.0217 2.855746,0.009 3.460889,-0.0201 z"
         style="fill:#a771fe;stroke-width:0.02116752" />
      <path
         id="path231"
         d="m 58.157919,282.33543 c -0.790249,-0.0312 -1.881949,-0.12607 -2.677691,-0.23269 -4.715181,-0.63172 -9.154341,-2.58472 -12.819909,-5.64007 -1.121915,-0.93515 -2.289028,-2.10226 -3.224176,-3.22418 -2.317781,-2.78068 -4.016184,-6.0281 -4.963426,-9.49027 -0.454758,-1.66214 -0.760589,-3.4962 -0.848185,-5.08654 -0.01282,-0.23284 -0.03469,-0.47574 -0.04859,-0.53977 -0.03681,-0.16958 -0.03681,-79.3568 0,-79.52638 0.0139,-0.064 0.03576,-0.30693 0.04859,-0.53977 0.05677,-1.03068 0.20686,-2.17876 0.43581,-3.33364 0.818234,-4.12738 2.66225,-7.98677 5.367916,-11.23468 0.936647,-1.12436 2.116193,-2.30391 3.240553,-3.24055 3.702875,-3.08468 8.18545,-5.03824 12.973901,-5.65419 0.515391,-0.0663 1.130487,-0.12399 1.59442,-0.14954 0.232843,-0.0128 0.47574,-0.0347 0.539772,-0.0486 0.169579,-0.0368 79.356796,-0.0368 79.526376,0 0.064,0.0139 0.30693,0.0357 0.53977,0.0484 0.23284,0.0127 0.65672,0.0467 0.94196,0.0755 5.01053,0.50605 9.74835,2.49776 13.62636,5.72834 1.06492,0.88713 2.21103,2.02318 3.10348,3.07628 3.28636,3.87788 5.32372,8.64375 5.85463,13.69538 0.0692,0.65841 0.12232,1.37055 0.14845,1.98975 0.0224,0.53125 0.0226,78.13195 2.1e-4,78.67967 -0.026,0.63535 -0.0779,1.33784 -0.14867,2.01092 -0.53619,5.10192 -2.60272,9.89708 -5.94779,13.80122 -0.88992,1.03866 -1.95685,2.09154 -3.00347,2.96393 -3.60419,3.00421 -7.94024,4.93617 -12.58542,5.60753 -0.83653,0.1209 -2.01566,0.22642 -2.96345,0.26521 -0.51018,0.0209 -78.182318,0.0195 -78.711427,-10e-4 z m 40.191382,-28.27758 c 1.350585,-0.0273 2.234469,-0.0747 3.371379,-0.18099 4.45076,-0.4161 8.37172,-1.54234 11.56407,-3.3216 2.90771,-1.62062 5.2358,-3.54926 7.05317,-5.84298 0.95277,-1.2025 2.02007,-2.94409 2.73099,-4.45633 1.21899,-2.59301 1.89701,-5.20218 2.08562,-8.02591 0.0195,-0.29135 0.0193,-0.41334 -6.3e-4,-0.54985 -0.07,-0.47899 -0.2416,-0.7762 -0.6485,-1.12343 -0.46346,-0.3955 -0.78368,-0.55044 -1.25679,-0.60812 -0.24558,-0.0299 -5.27311,-0.0298 -5.57066,2.1e-4 -1.18906,0.11973 -1.84223,0.79575 -2.18747,2.26402 -0.50678,2.15524 -1.0657,3.78494 -1.82214,5.31305 -0.44302,0.89494 -0.80275,1.50225 -1.32279,2.23317 -1.46981,2.06581 -3.38172,3.52161 -5.97535,4.54981 -2.16226,0.8572 -4.55871,1.32242 -7.485748,1.4532 -0.729617,0.0326 -2.695339,0.0137 -3.302347,-0.0317 -2.39556,-0.17925 -4.292583,-0.58322 -6.093708,-1.29764 -2.03643,-0.80776 -3.750345,-1.96785 -5.155335,-3.48948 -2.929465,-3.17265 -4.506936,-7.87169 -4.753495,-14.15991 -0.07707,-1.96563 -0.114832,-5.81309 -0.09857,-10.04399 0.01503,-3.91112 0.04776,-5.9058 0.120013,-7.31338 0.348765,-6.7944 2.286228,-11.71624 5.82069,-14.7866 2.445354,-2.12426 5.699067,-3.37153 9.684141,-3.7123 0.865057,-0.074 1.204711,-0.0859 2.434264,-0.0858 1.273853,2.1e-4 1.725589,0.0164 2.677685,0.0963 3.61076,0.3031 6.52582,1.21133 8.85861,2.76004 0.84467,0.56075 1.48944,1.09824 2.11219,1.7607 1.96829,2.0938 3.33214,4.92568 4.24961,8.82391 0.13107,0.55684 0.23898,0.8962 0.37673,1.18455 0.392,0.82063 0.96976,1.21882 1.8904,1.30289 0.18326,0.0167 1.06209,0.0215 2.93912,0.0161 l 2.67769,-0.008 0.20705,-0.0472 c 0.92325,-0.21047 1.56091,-0.90212 1.6346,-1.77301 0.0247,-0.29207 -0.0771,-1.44044 -0.2025,-2.28389 -0.45457,-3.05769 -1.49223,-5.84186 -3.22287,-8.64734 -0.91627,-1.48534 -1.74652,-2.5388 -2.94508,-3.73691 -1.3112,-1.31069 -2.72556,-2.40322 -4.45681,-3.4427 -1.08391,-0.65079 -2.52261,-1.38093 -3.6611,-1.858 -3.93248,-1.64788 -8.75467,-2.44266 -14.124872,-2.32803 -3.048621,0.0651 -5.597082,0.38634 -8.133654,1.02534 -1.87254,0.47173 -3.506531,1.06755 -5.113986,1.86481 -1.777175,0.88142 -3.303438,1.90654 -4.778708,3.20961 -0.678356,0.59918 -1.7399,1.71309 -2.40774,2.5265 -0.601632,0.73278 -1.450976,1.93993 -1.957193,2.78172 -0.655427,1.0899 -1.315992,2.41997 -1.808166,3.64081 -1.136421,2.81889 -1.861019,5.95731 -2.189444,9.48305 -0.198212,2.12787 -0.243202,4.20265 -0.243263,11.21879 0,5.58673 0.02873,7.75847 0.126086,9.5148 0.408578,7.37086 2.520258,13.33614 6.339252,17.90772 1.279756,1.53195 2.689822,2.79362 4.381846,3.92072 4.094169,2.72721 9.358197,4.16984 15.694974,4.30127 0.419117,0.009 0.790607,0.0172 0.825533,0.0188 0.03493,0.002 0.513374,-0.006 1.063219,-0.0171 z"
         style="fill:#9756fe;stroke-width:0.02116752" />
      <path
         id="path229"
         d="m 58.337843,282.33807 c -0.324617,-0.008 -0.433951,-0.0151 -0.328097,-0.0229 l 0.158757,-0.0116 -0.201092,-0.004 c -0.654965,-0.014 -1.888945,-0.12398 -2.677691,-0.23861 -2.170289,-0.31541 -4.181723,-0.86792 -6.159749,-1.692 -6.223065,-2.59265 -11.182906,-7.6062 -13.705466,-13.85389 -1.074741,-2.66184 -1.694133,-5.52671 -1.819518,-8.41581 -0.01198,-0.27604 -0.01782,-0.32615 -0.02322,-0.19937 -0.03037,0.71211 -0.03593,-5.41222 -0.03593,-39.54093 0,-34.12871 0.0056,-40.25304 0.03593,-39.54093 0.0054,0.12678 0.01124,0.0767 0.02322,-0.19937 0.245021,-5.64572 2.33715,-10.9955 5.981485,-15.29525 0.854048,-1.00765 1.935268,-2.08621 2.955018,-2.94774 2.052859,-1.73437 4.371394,-3.13457 6.842492,-4.1323 2.663182,-1.07528 5.525254,-1.69407 8.41581,-1.81952 0.259071,-0.0112 0.321503,-0.0182 0.209954,-0.0233 -0.660718,-0.0302 5.424861,-0.0357 39.530346,-0.0357 34.093008,0 40.193628,0.006 39.530348,0.0357 -0.10942,0.005 -0.0403,0.0124 0.22226,0.0239 6.80595,0.29702 13.16088,3.28918 17.70886,8.33807 3.24604,3.60354 5.3647,8.01225 6.15657,12.81116 0.17012,1.03096 0.30622,2.38963 0.32227,3.21712 l 0.004,0.19662 0.0121,-0.15876 c 0.007,-0.0973 0.0182,0.10278 0.0279,0.51677 0.0207,0.88283 0.0207,77.14433 0,78.02716 -0.01,0.41399 -0.0206,0.61406 -0.0279,0.51677 l -0.0121,-0.15876 -0.004,0.19662 c -0.002,0.10814 -0.0137,0.36056 -0.0258,0.56094 -0.26628,4.42162 -1.61642,8.55808 -4.00698,12.27627 -1.25009,1.94434 -2.90684,3.84938 -4.68199,5.38362 -2.69115,2.32594 -5.8121,4.04906 -9.19981,5.07935 -1.98542,0.60381 -4.15083,0.97177 -6.27317,1.06598 -0.26394,0.0117 -0.33224,0.0191 -0.22226,0.0241 0.0873,0.004 -0.0841,0.0136 -0.38102,0.0214 -0.63311,0.0166 -77.632927,0.0161 -78.351577,-4.8e-4 z m 40.789813,-28.28046 c 2.102654,-0.0773 3.950704,-0.26812 5.750984,-0.5938 3.12407,-0.56518 5.99373,-1.54895 8.36775,-2.86862 3.26796,-1.81659 5.78816,-3.9966 7.67721,-6.64093 1.10252,-1.54333 2.16063,-3.51062 2.84271,-5.2853 0.64871,-1.6879 1.10763,-3.57303 1.31145,-5.38714 0.10498,-0.93438 0.12622,-1.50594 0.0655,-1.76339 -0.0681,-0.28911 -0.19051,-0.53255 -0.36487,-0.72587 -0.0953,-0.10569 -0.43826,-0.40347 -0.58949,-0.51188 -0.15442,-0.11069 -0.43848,-0.24098 -0.63396,-0.29079 -0.31694,-0.0807 -0.59216,-0.0874 -3.29155,-0.0792 -2.83689,0.009 -2.74482,0.005 -3.1576,0.13485 -0.83539,0.26352 -1.32893,0.915 -1.6259,2.14617 -0.15796,0.65487 -0.26299,1.06872 -0.35993,1.41822 -1.15001,4.14616 -3.04417,7.17948 -5.62475,9.00752 -1.92873,1.36627 -4.36603,2.31133 -7.1713,2.78066 -2.28547,0.38236 -4.962605,0.47887 -7.355712,0.26517 -1.100539,-0.0983 -2.276042,-0.29211 -3.263388,-0.53814 -4.139965,-1.03158 -7.193761,-3.26031 -9.237758,-6.74194 -0.207078,-0.35272 -0.686732,-1.29085 -0.844167,-1.65106 -1.197891,-2.74076 -1.854154,-5.92191 -2.021835,-9.80056 -0.0808,-1.86909 -0.113852,-5.17735 -0.09959,-9.96991 0.01301,-4.37356 0.04135,-6.16186 0.121097,-7.64147 0.373839,-6.93607 2.404565,-11.88646 6.127191,-14.93654 2.365464,-1.9381 5.554963,-3.11596 9.303125,-3.43558 0.929923,-0.0793 1.122654,-0.086 2.487184,-0.0859 1.60251,2e-5 2.205762,0.0296 3.482053,0.17088 4.38166,0.48494 7.84431,1.99854 10.15609,4.43945 1.90849,2.01509 3.33218,4.93678 4.19492,8.60878 0.1415,0.60222 0.1816,0.75189 0.26802,1.00016 0.30412,0.87371 0.75931,1.36802 1.46465,1.59052 0.41217,0.13002 0.32108,0.12614 3.15727,0.13455 2.77089,0.008 3.02008,0.002 3.37605,-0.089 0.64842,-0.16514 1.19833,-0.64103 1.41939,-1.22834 0.12955,-0.34415 0.14844,-0.64446 0.0859,-1.36555 -0.25252,-2.91131 -0.97221,-5.48024 -2.25932,-8.06482 -0.45263,-0.9089 -0.84869,-1.60527 -1.42059,-2.49777 -1.82302,-2.84498 -4.42969,-5.23004 -7.75802,-7.09846 -0.81766,-0.459 -1.91292,-1.0068 -2.67279,-1.33681 -3.05618,-1.32727 -6.54328,-2.12379 -10.46665,-2.39077 -1.09924,-0.0748 -1.483028,-0.0855 -3.069288,-0.0857 -1.640862,-2.2e-4 -1.984557,0.0103 -3.185712,0.0967 -5.882657,0.42315 -10.728597,2.07612 -14.520919,4.95313 -0.807192,0.61237 -1.339828,1.08112 -2.1493,1.89147 -1.180671,1.18197 -2.068018,2.27019 -2.978628,3.65292 -2.548982,3.87053 -4.072366,8.64925 -4.544705,14.25632 -0.143994,1.70932 -0.179339,2.98244 -0.214549,7.72787 -0.03302,4.45042 0.0056,9.73657 0.08694,11.89442 0.290342,7.70377 2.420961,13.97615 6.345386,18.68034 1.075549,1.28926 2.105125,2.26874 3.439949,3.2726 1.444897,1.08664 3.070444,2.00772 4.851682,2.74912 1.879473,0.78228 4.102359,1.40166 6.308332,1.75775 1.687244,0.27236 3.167167,0.41158 5.132713,0.48286 0.444861,0.0161 2.560047,0.0112 3.058707,-0.007 z"
         style="fill:#8b42fe;stroke-width:0.02116752" />
    </g>
    <path
       id="path225"
       d=""
       style="fill:#000000;stroke-width:0.02116752" />
  </g>
</svg>
